<?xml version="1.0" encoding="iso-8859-1" ?>
<svg version="1.1" xmlns="http://www.w3.org/2000/svg" xmlns:xlink="http://www.w3.org/1999/xlink" 
    viewBox="0 0 1500 1500" width="1500" height="1500">
    
    
    <!-- ITEM 0 -->
    <g>
        <defs>
            <clipPath id="clip-path-id-viewbox-item-0">
                <rect x="0.0" y="0.0" width="64.0" height="64.0"/>
            </clipPath>
        </defs>
        <g transform="translate(-2.0 -2.0) rotate(0.0 751.0 751.0) scale(23.46875 23.46875)">
            <g clip-path="url(#clip-path-id-viewbox-item-0)" transform="translate(-0.0 -0.0)">
                <path fill="#72caaf" d="M22 14l1.29 4.83-9.66 2.59-1.29-4.83A5 5 0 1 1 22 14zM25.88 28.46l6.47 24.15a5 5 0 0 1-9.66 2.59L16.22 31.05z"></path><path fill="#f9dd8f" d="M41.31 8.8l6.47 24.15-9.66 2.59L31.65 11.39A5 5 0 1 1 41.31 8.8zM40.71 45.19l9.66-2.59 1.29 4.83A5 5 0 0 1 42 50z"></path><path fill="#85cbf8" d="M32.95 16.22l2.59 9.66L11.39 32.35A5 5 0 0 1 8.8 22.69zM53.56 15.87A5 5 0 0 1 50 22l-4.83 1.29-2.59-9.66 4.83-1.29A5 5 0 0 1 53.56 15.87z"></path><path fill="#ed7899" d="M14 42l4.83-1.29 2.59 9.66-4.83 1.29A5 5 0 0 1 14 42zM58.74 35.19a5 5 0 0 1-3.54 6.12L31.05 47.78l-2.59-9.66 24.15-6.47A5 5 0 0 1 58.74 35.19z"></path><path fill="#8d6c9f" d="M59.7,34.93a6,6,0,0,0-7.35-4.24l-3.86,1L46.42,24l3.86-1a6,6,0,1,0-3.11-11.59l-3.86,1-1-3.86a6,6,0,1,0-11.59,3.11l1,3.86L24,17.58l-1-3.86a6,6,0,0,0-11.59,3.11l1,3.86-3.86,1a6,6,0,1,0,3.11,11.59l3.86-1L17.58,40l-3.86,1a6,6,0,1,0,3.11,11.59l3.86-1,1,3.86a6,6,0,0,0,11.59-3.11l-1-3.86L40,46.42l1,3.86a6,6,0,0,0,11.59-3.11l-1-3.86,3.86-1a6,6,0,0,0,4.24-7.35Zm-12-21.63A4,4,0,1,1,49.77,21l-3.86,1-1.4-5.21-.67-2.51ZM35.45,6.23a4,4,0,0,1,4.9,2.83l1.29,4.83h0L42.48,17l.19.71s0,0,0,0l.52,1.93v0l3.36,12.54-7.73,2.07L36.5,25.62h0L34.76,19.1l-2.14-8A4,4,0,0,1,35.45,6.23ZM13.3,16.31a4,4,0,0,1,2.83-4.9A4,4,0,0,1,21,14.23l1,3.86-5.21,1.4-2.51.67ZM11.13,31.38a4,4,0,0,1-2.07-7.73l4.83-1.29h0L17,21.52l15.21-4.07L32.91,20l.1.37s0,0,0,0l.52,1.93v0l.77,2.88L25.62,27.5h0l-7.76,2.08ZM16.3,50.7A4,4,0,0,1,14.23,43l3.86-1,.48,1.8.29,1.09s0,0,0,0l.52,1.93v0l.77,2.88ZM31,55.91a4,4,0,0,1-7.33-1L20.46,43l-.69-2.58h0l-2.33-8.69,1.43-.38,6.29-1.69,3.36,12.54s0,0,0,0L29,44.18v0l2.33,8.68A4,4,0,0,1,31,55.91ZM27.1,29.17l7.73-2.07,2.07,7.73L29.17,36.9ZM49.66,43.83l1,3.86A4,4,0,0,1,43,49.77l-1-3.86,1.8-.48Zm7.71-5.35a4,4,0,0,1-2.44,1.87L43,43.54l-2.58.69h0l-8.69,2.33-2.07-7.73,23.18-6.21a4,4,0,0,1,4.51,5.86Z"></path><path fill="#8d6c9f" d="M16 45.61a1 1 0 1 0-1.93.52l.52 1.93a1 1 0 0 0 1.93-.52zM35.29 40.44a1 1 0 1 0-1.93.52l.52 1.93a1 1 0 1 0 1.93-.52zM40.12 39.14a1 1 0 1 0-1.93.52l.52 1.93a1 1 0 0 0 1.93-.52zM45 37.85a1 1 0 0 0-1.93.52l.52 1.93a1 1 0 1 0 1.93-.52zM49.78 36.55a1 1 0 1 0-1.93.52L48.37 39a1 1 0 1 0 1.93-.52zM54.61 35.26a1 1 0 1 0-1.93.52l.52 1.93a1 1 0 0 0 1.93-.52zM10.8 26.29a1 1 0 1 0-1.93.52l.52 1.93a1 1 0 0 0 1.93-.52zM23.87 24.86a1 1 0 0 0 1.93-.52l-.52-1.93a1 1 0 1 0-1.93.52zM28.7 23.57A1 1 0 1 0 30.63 23l-.52-1.93a1 1 0 0 0-1.93.52zM48 18.39A1 1 0 0 0 50 17.87l-.52-1.93a1 1 0 0 0-1.93.52zM16.14 26.93L15.63 25a1 1 0 1 0-1.93.52l.52 1.93a1 1 0 0 0 1.93-.52zM19 26.15A1 1 0 0 0 21 25.64l-.52-1.93a1 1 0 0 0-1.93.52z"></path>
            </g>
        </g>
    </g>
    
    <!-- ITEM 1 -->
    <g>
        <defs>
            <clipPath id="clip-path-id-viewbox-item-1">
                <rect x="0.0" y="0.0" width="512.0" height="512.0"/>
            </clipPath>
        </defs>
        <g transform="translate(568.0 561.0) rotate(0.0 181.0 181.0) scale(0.70703125 0.70703125)">
            <g clip-path="url(#clip-path-id-viewbox-item-1)" transform="translate(-0.0 -0.0)">
                <path fill="#25B7D3" d="M504.1,256C504.1,119,393,7.9,256,7.9C119,7.9,7.9,119,7.9,256C7.9,393,119,504.1,256,504.1C393,504.1,504.1,393,504.1,256z"></path><path fill="#FFF" d="M323.2 367.5c-1.4-2-4-2.8-6.3-1.7-24.6 11.6-52.5 23.9-58 25-.1-.1-.4-.3-.6-.7-.7-1-1.1-2.3-1.1-4 0-13.9 10.5-56.2 31.2-125.7 17.5-58.4 19.5-70.5 19.5-74.5 0-6.2-2.4-11.4-6.9-15.1-4.3-3.5-10.2-5.3-17.7-5.3-12.5 0-26.9 4.7-44.1 14.5-16.7 9.4-35.4 25.4-55.4 47.5-1.6 1.7-1.7 4.3-.4 6.2 1.3 1.9 3.8 2.6 6 1.8 7-2.9 42.4-17.4 47.6-20.6 4.2-2.6 7.9-4 10.9-4 .1 0 .2 0 .3 0 0 .2.1.5.1.9 0 3-.6 6.7-1.9 10.7-30.1 97.6-44.8 157.5-44.8 183 0 9 2.5 16.2 7.4 21.5 5 5.4 11.8 8.1 20.1 8.1 8.9 0 19.7-3.7 33.1-11.4 12.9-7.4 32.7-23.7 60.4-49.7C324.3 372.2 324.6 369.5 323.2 367.5zM322.2 84.6c-4.9-5-11.2-7.6-18.7-7.6-9.3 0-17.5 3.7-24.2 11-6.6 7.2-9.9 15.9-9.9 26.1 0 8 2.5 14.7 7.3 19.8 4.9 5.2 11.1 7.8 18.5 7.8 9 0 17-3.9 24-11.6 6.9-7.6 10.4-16.4 10.4-26.4C329.6 96 327.1 89.6 322.2 84.6z"></path>
            </g>
        </g>
    </g>
    
</svg>